PathFileType	4	(X/Y/Z)	TVC_60_BWA03_walk_RCNL2025.trc
DataRate	CameraRate	NumFrames	NumMarkers	Units	OrigDataRate	OrigDataStartFrame	OrigNumFrames
100	100	7	27	mm	100	1	275
Frame#	Time	R_Shoulder			L_Shoulder			C7			J_Notch			R_Elbow			L_Elbow			R_Wrist			L_Wrist			R_Asis			L_Asis			R_Psis			L_Psis			Sacral			Thoracic			Sternum			R_Thigh_Lateral			R_Knee_Lateral			R_Shank_Lateral			R_Ankle_Lateral			R_Heel			R_Toe			L_Thigh_Lateral			L_Knee_Lateral			L_Shank_Lateral			L_Ankle_Lateral			L_Heel			L_Toe		
		X1	Y1	Z1	X2	Y2	Z2	X3	Y3	Z3	X4	Y4	Z4	X5	Y5	Z5	X6	Y6	Z6	X7	Y7	Z7	X8	Y8	Z8	X9	Y9	Z9	X10	Y10	Z10	X11	Y11	Z11	X12	Y12	Z12	X13	Y13	Z13	X14	Y14	Z14	X15	Y15	Z15	X16	Y16	Z16	X17	Y17	Z17	X18	Y18	Z18	X19	Y19	Z19	X20	Y20	Z20	X21	Y21	Z21	X22	Y22	Z22	X23	Y23	Z23	X24	Y24	Z24	X25	Y25	Z25	X26	Y26	Z26	X27	Y27	Z27
1	0.00000000	-1795.058960	1302.681030	124.849541	-1847.975098	1326.345825	-223.387756	-1879.535278	1385.061890	-46.983303	-1778.162109	1249.198853	-59.525421	-1913.676514	993.138611	218.480698	-1893.472900	985.721069	-291.242889	-1884.311218	759.080322	257.412964	-1804.524658	771.171295	-334.162659	-1806.822021	893.890320	93.503380	-1854.003296	901.671875	-189.466034	-1993.038574	897.183533	43.191772	-2011.583984	905.305298	-64.307762	-2002.311279	901.244415	-10.557995	-1948.339966	1182.254395	-33.810452	-1768.241455	1051.153320	-50.503536	-1759.205078	600.798767	176.729233	-1676.649780	464.339752	105.055008	-1630.934937	253.744232	137.764816	-1595.028320	81.263138	68.943771	-1625.679932	63.837952	14.207055	-1468.636475	107.480232	80.902863	-1929.276978	622.435547	-239.089020	-1931.777832	430.262360	-159.913177	-2004.568359	248.824341	-180.488190	-2060.523438	61.938389	-93.779755	-2099.859375	67.255989	-46.144234	-1936.343140	42.492500	-100.502197
2	0.01000000	-1786.811523	1301.483398	125.204277	-1840.471924	1325.631836	-222.923386	-1871.642700	1384.060547	-46.294567	-1770.193848	1248.227417	-59.326443	-1907.197632	992.703003	218.657974	-1884.666138	985.184570	-292.023560	-1880.143188	758.578583	258.737106	-1794.259827	771.462799	-336.199310	-1798.460938	892.475525	92.848160	-1846.771240	900.957886	-190.019791	-1984.903076	895.878174	43.255421	-2003.820679	904.204102	-64.113045	-1994.361877	900.041138	-10.428812	-1940.374878	1181.175293	-33.231701	-1760.494873	1050.037354	-50.901962	-1751.774414	599.256836	175.311081	-1668.779419	463.644928	103.900093	-1617.472412	254.686890	138.140579	-1578.303833	81.908096	70.026169	-1609.138672	63.361866	15.797301	-1451.705444	110.944466	80.365784	-1923.535767	621.992188	-239.716827	-1928.361084	429.883423	-160.127304	-2002.823486	249.179001	-180.576752	-2060.275146	62.697273	-93.787567	-2099.565186	68.387711	-46.146194	-1936.310181	42.483799	-100.501343
3	0.02000000	-1778.559937	1300.391479	125.657486	-1832.917847	1325.023804	-222.379257	-1863.709961	1383.161377	-45.542233	-1762.154053	1247.388916	-59.030693	-1900.532471	992.298157	218.897919	-1875.920288	984.750061	-292.644684	-1875.670959	758.128326	260.072426	-1784.174744	771.821045	-338.078293	-1789.958130	891.172913	92.298904	-1839.324707	900.320129	-190.494690	-1976.593506	894.648438	43.371967	-1995.839111	903.156189	-63.871452	-1986.216309	898.902313	-10.249743	-1932.319702	1180.176025	-32.621925	-1752.590332	1049.061035	-51.190739	-1744.026733	597.763733	173.970108	-1660.706055	462.929077	102.798508	-1605.078613	255.288116	138.402786	-1563.759521	82.108963	70.777588	-1594.825439	62.713196	17.002125	-1436.896729	113.185616	79.653488	-1917.751221	621.635742	-240.245743	-1924.722046	429.587036	-160.345001	-2000.899536	249.648483	-180.678848	-2059.969238	63.624992	-93.853790	-2099.211670	69.732956	-46.217560	-1936.263306	42.489590	-100.521873
4	0.03000000	-1770.305908	1299.406372	126.208961	-1825.309448	1324.521729	-221.756134	-1855.736328	1382.364258	-44.727280	-1754.042114	1246.683472	-58.637955	-1893.682617	991.924927	219.199799	-1867.234497	984.418030	-293.107025	-1870.893982	757.729889	261.419006	-1774.269714	772.245514	-339.799133	-1781.316040	889.984802	91.857529	-1831.655640	899.757385	-190.888443	-1968.112061	893.498047	43.539360	-1987.639404	902.165161	-63.586246	-1977.875732	897.831604	-10.023443	-1924.174561	1179.257568	-31.982344	-1744.526855	1048.225586	-51.368649	-1735.937134	596.362976	172.740524	-1652.441772	462.192505	101.750282	-1593.809448	255.479248	138.515106	-1551.348145	81.854836	71.186584	-1582.692871	61.868805	17.807911	-1424.199097	114.194962	78.744980	-1911.932983	621.367493	-240.671936	-1920.855591	429.376373	-160.566666	-1998.789551	250.236115	-180.799301	-2059.600586	64.722725	-93.984314	-2098.796875	71.294502	-46.368351	-1936.199341	42.512157	-100.567238
5	0.04000000	-1762.052002	1298.530029	126.858238	-1817.641968	1324.126221	-221.055115	-1847.721680	1381.669678	-43.851116	-1745.857666	1246.111328	-58.148041	-1886.650757	991.584229	219.562592	-1858.607788	984.189087	-293.411804	-1865.811340	757.383759	262.776962	-1764.544800	772.735535	-341.361221	-1772.538452	888.914307	91.526398	-1823.752930	899.267578	-191.197769	-1959.461792	892.432068	43.754730	-1979.222290	901.235840	-63.261944	-1969.342041	896.833954	-9.753607	-1915.940063	1178.421021	-31.314631	-1736.302979	1047.533081	-51.433990	-1727.486572	595.099915	171.657578	-1644.002197	461.436432	100.755562	-1583.703003	255.204269	138.438904	-1540.986694	81.148064	71.247765	-1572.657104	60.813126	18.210152	-1413.566650	113.991539	77.618126	-1906.094238	621.188782	-240.990753	-1916.754761	429.255127	-160.791901	-1996.485840	250.946426	-180.944366	-2059.163330	65.992233	-94.186600	-2098.317139	73.075401	-46.610535	-1936.113647	42.554142	-100.641418
6	0.05000000	-1753.801270	1297.764282	127.604553	-1809.909790	1323.837402	-220.277725	-1839.665283	1381.077637	-42.915630	-1737.599976	1245.672485	-57.560852	-1879.440308	991.277588	219.985077	-1850.038818	984.063660	-293.560730	-1860.421997	757.090515	264.146439	-1755.000305	773.289978	-342.763763	-1763.630371	887.965637	91.308250	-1815.603394	898.848022	-191.418274	-1950.646851	891.456909	44.014366	-1970.589111	900.374329	-62.904350	-1960.617981	895.915619	-9.444992	-1907.616821	1177.667725	-30.620968	-1727.917603	1046.985840	-51.384552	-1718.673096	594.010437	170.749557	-1635.407104	460.663666	99.814682	-1574.761841	254.434921	138.139038	-1532.548218	80.011253	70.965942	-1564.590698	59.546276	18.218065	-1404.902954	112.632217	76.253227	-1900.249023	621.101196	-241.198349	-1912.412476	429.227631	-161.019562	-1993.980469	251.785309	-181.121475	-2058.650391	67.436081	-94.469177	-2097.768799	75.079010	-46.956955	-1936.000122	42.618103	-100.748512
7	0.06000000	-1745.557495	1297.111816	128.446701	-1802.105469	1323.655518	-219.425964	-1831.566406	1380.588501	-41.923237	-1729.268677	1245.367065	-56.876442	-1872.055908	991.006653	220.465714	-1841.525757	984.042542	-293.555939	-1854.724487	756.850861	265.527557	-1745.636169	773.907349	-344.005844	-1754.598145	887.143799	91.205925	-1807.192749	898.495178	-191.544647	-1941.672974	890.580139	44.313725	-1961.742798	899.587585	-62.520500	-1951.707886	895.083862	-9.103388	-1899.205688	1176.999390	-29.904037	-1719.369995	1046.586426	-51.217644	-1709.524780	593.110168	170.030685	-1626.678467	459.879486	98.928337	-1566.938354	253.181976	137.589447	-1525.857666	78.491974	70.359642	-1558.317871	58.090927	17.857967	-1398.050781	110.216995	74.637817	-1894.409668	621.107544	-241.294006	-1907.820312	429.298553	-161.248123	-1991.265991	252.760010	-181.338394	-2058.054443	69.057732	-94.840683	-2097.145996	77.309067	-47.419987	-1935.850830	42.705902	-100.892242
